<svg width="19" height="22" viewBox="0 0 19 22" fill="none" xmlns="http://www.w3.org/2000/svg">
<path d="M8.00001 6.45001V0.600006H2.15001C1.63284 0.600006 1.13685 0.805452 0.771154 1.17115C0.405458 1.53684 0.200012 2.03283 0.200012 2.55001V19.45C0.200012 19.9672 0.405458 20.4632 0.771154 20.8289C1.13685 21.1946 1.63284 21.4 2.15001 21.4H5.68731C5.41431 20.893 5.31681 20.282 5.47411 19.6489L5.96161 17.7015C6.14361 16.9709 6.52061 16.304 7.05361 15.771L13.3326 9.49201C13.9901 8.83379 14.8705 8.446 15.8 8.40521V8.40001H9.95001C9.43284 8.40001 8.93685 8.19456 8.57115 7.82886C8.20546 7.46317 8.00001 6.96718 8.00001 6.45001ZM9.30001 6.45001V0.925006L15.475 7.10001H9.95001C9.77762 7.10001 9.61229 7.03152 9.49039 6.90963C9.36849 6.78773 9.30001 6.6224 9.30001 6.45001ZM17.6902 10.4124C17.4645 10.1866 17.1964 10.0075 16.9014 9.88523C16.6064 9.76302 16.2903 9.70011 15.971 9.70011C15.6517 9.70011 15.3355 9.76302 15.0405 9.88523C14.7455 10.0075 14.4775 10.1866 14.2517 10.4124L7.97271 16.6914C7.60723 17.0573 7.34798 17.5156 7.22261 18.0174L6.73511 19.9648C6.68704 20.1585 6.68987 20.3613 6.74335 20.5536C6.79682 20.7458 6.89911 20.921 7.04029 21.062C7.18147 21.2031 7.35672 21.3052 7.54904 21.3585C7.74135 21.4118 7.94417 21.4145 8.13781 21.3662L10.0852 20.88C10.587 20.7539 11.0459 20.4952 11.4112 20.1286L17.6902 13.8496C18.1459 13.3937 18.4019 12.7756 18.4019 12.131C18.4019 11.4864 18.1459 10.8683 17.6902 10.4124V10.4124Z" fill="white"/>
</svg>
